<mxfile host="app.diagrams.net" agent="Mozilla/5.0 (Windows NT 10.0; Win64; x64) AppleWebKit/537.36 (KHTML, like Gecko) Chrome/134.0.0.0 Safari/537.36 Edg/134.0.0.0" version="26.1.0" pages="2">
  <diagram name="Página-1" id="6t0Ti13u5v8dVODKgkca">
    <mxGraphModel dx="1042" dy="565" grid="1" gridSize="10" guides="1" tooltips="1" connect="1" arrows="1" fold="1" page="1" pageScale="1" pageWidth="827" pageHeight="1169" math="0" shadow="0">
      <root>
        <mxCell id="0" />
        <mxCell id="1" parent="0" />
        <mxCell id="yw8WLsfLSGK76vAvfejm-14" style="edgeStyle=orthogonalEdgeStyle;rounded=0;orthogonalLoop=1;jettySize=auto;html=1;exitX=0.75;exitY=0.1;exitDx=0;exitDy=0;exitPerimeter=0;" edge="1" parent="1" source="yw8WLsfLSGK76vAvfejm-10" target="yw8WLsfLSGK76vAvfejm-13">
          <mxGeometry relative="1" as="geometry" />
        </mxCell>
        <mxCell id="yw8WLsfLSGK76vAvfejm-10" value="Cliente" style="shape=umlActor;verticalLabelPosition=bottom;verticalAlign=top;html=1;outlineConnect=0;" vertex="1" parent="1">
          <mxGeometry x="40" y="150" width="30" height="60" as="geometry" />
        </mxCell>
        <mxCell id="yw8WLsfLSGK76vAvfejm-13" value="" style="ellipse;whiteSpace=wrap;html=1;" vertex="1" parent="1">
          <mxGeometry x="140" y="70" width="120" height="80" as="geometry" />
        </mxCell>
        <mxCell id="yw8WLsfLSGK76vAvfejm-15" value="fazer reserva" style="text;html=1;align=center;verticalAlign=middle;whiteSpace=wrap;rounded=0;" vertex="1" parent="1">
          <mxGeometry x="170" y="95" width="60" height="30" as="geometry" />
        </mxCell>
        <mxCell id="yw8WLsfLSGK76vAvfejm-16" value="" style="ellipse;whiteSpace=wrap;html=1;" vertex="1" parent="1">
          <mxGeometry x="140" y="180" width="120" height="70" as="geometry" />
        </mxCell>
        <mxCell id="yw8WLsfLSGK76vAvfejm-23" value="&lt;font&gt;cancelar&lt;/font&gt;&lt;div&gt;Reservava&lt;/div&gt;" style="text;html=1;align=center;verticalAlign=middle;whiteSpace=wrap;rounded=0;" vertex="1" parent="1">
          <mxGeometry x="170" y="200" width="60" height="30" as="geometry" />
        </mxCell>
        <mxCell id="yw8WLsfLSGK76vAvfejm-26" style="edgeStyle=orthogonalEdgeStyle;rounded=0;orthogonalLoop=1;jettySize=auto;html=1;exitX=1;exitY=1;exitDx=0;exitDy=0;exitPerimeter=0;entryX=0.003;entryY=0.622;entryDx=0;entryDy=0;entryPerimeter=0;" edge="1" parent="1" source="yw8WLsfLSGK76vAvfejm-10" target="yw8WLsfLSGK76vAvfejm-16">
          <mxGeometry relative="1" as="geometry" />
        </mxCell>
      </root>
    </mxGraphModel>
  </diagram>
  <diagram id="6NuNkk720-_LNn2x3GKd" name="Página-2">
    <mxGraphModel dx="1042" dy="565" grid="1" gridSize="10" guides="1" tooltips="1" connect="1" arrows="1" fold="1" page="1" pageScale="1" pageWidth="827" pageHeight="1169" math="0" shadow="0">
      <root>
        <mxCell id="0" />
        <mxCell id="1" parent="0" />
        <mxCell id="VjkO7lBqElOSb7gBJIfo-1" value="" style="whiteSpace=wrap;html=1;aspect=fixed;" vertex="1" parent="1">
          <mxGeometry x="170" y="40" width="480" height="480" as="geometry" />
        </mxCell>
        <mxCell id="j9T_pwgQm9o4kURad69F-1" style="edgeStyle=orthogonalEdgeStyle;rounded=0;orthogonalLoop=1;jettySize=auto;html=1;exitX=0.5;exitY=1;exitDx=0;exitDy=0;entryX=0.523;entryY=1.006;entryDx=0;entryDy=0;entryPerimeter=0;" edge="1" parent="1" source="VjkO7lBqElOSb7gBJIfo-1" target="VjkO7lBqElOSb7gBJIfo-1">
          <mxGeometry relative="1" as="geometry" />
        </mxCell>
        <mxCell id="j9T_pwgQm9o4kURad69F-20" style="edgeStyle=orthogonalEdgeStyle;rounded=0;orthogonalLoop=1;jettySize=auto;html=1;exitX=0.75;exitY=0.1;exitDx=0;exitDy=0;exitPerimeter=0;entryX=0;entryY=0.5;entryDx=0;entryDy=0;" edge="1" parent="1" source="j9T_pwgQm9o4kURad69F-6" target="j9T_pwgQm9o4kURad69F-9">
          <mxGeometry relative="1" as="geometry" />
        </mxCell>
        <mxCell id="j9T_pwgQm9o4kURad69F-23" style="edgeStyle=orthogonalEdgeStyle;rounded=0;orthogonalLoop=1;jettySize=auto;html=1;exitX=1;exitY=1;exitDx=0;exitDy=0;exitPerimeter=0;entryX=0;entryY=0.5;entryDx=0;entryDy=0;" edge="1" parent="1" source="j9T_pwgQm9o4kURad69F-6" target="j9T_pwgQm9o4kURad69F-17">
          <mxGeometry relative="1" as="geometry" />
        </mxCell>
        <mxCell id="j9T_pwgQm9o4kURad69F-41" style="edgeStyle=orthogonalEdgeStyle;rounded=0;orthogonalLoop=1;jettySize=auto;html=1;exitX=0.5;exitY=0.5;exitDx=0;exitDy=0;exitPerimeter=0;" edge="1" parent="1" source="j9T_pwgQm9o4kURad69F-6" target="j9T_pwgQm9o4kURad69F-16">
          <mxGeometry relative="1" as="geometry" />
        </mxCell>
        <mxCell id="j9T_pwgQm9o4kURad69F-42" style="edgeStyle=orthogonalEdgeStyle;rounded=0;orthogonalLoop=1;jettySize=auto;html=1;exitX=1;exitY=0.3333333333333333;exitDx=0;exitDy=0;exitPerimeter=0;entryX=0;entryY=0.5;entryDx=0;entryDy=0;" edge="1" parent="1" source="j9T_pwgQm9o4kURad69F-6" target="j9T_pwgQm9o4kURad69F-15">
          <mxGeometry relative="1" as="geometry">
            <Array as="points">
              <mxPoint x="240" y="190" />
              <mxPoint x="240" y="165" />
            </Array>
          </mxGeometry>
        </mxCell>
        <mxCell id="j9T_pwgQm9o4kURad69F-6" value="&lt;span style=&quot;white-space: pre-wrap;&quot; class=&quot;selectable-text copyable-text false&quot;&gt;cliente&lt;/span&gt;" style="shape=umlActor;verticalLabelPosition=bottom;verticalAlign=top;html=1;outlineConnect=0;" vertex="1" parent="1">
          <mxGeometry x="80" y="170" width="30" height="60" as="geometry" />
        </mxCell>
        <mxCell id="j9T_pwgQm9o4kURad69F-25" style="edgeStyle=orthogonalEdgeStyle;rounded=0;orthogonalLoop=1;jettySize=auto;html=1;exitX=1;exitY=0.3333333333333333;exitDx=0;exitDy=0;exitPerimeter=0;entryX=0;entryY=0.5;entryDx=0;entryDy=0;" edge="1" parent="1" source="j9T_pwgQm9o4kURad69F-7" target="j9T_pwgQm9o4kURad69F-18">
          <mxGeometry relative="1" as="geometry" />
        </mxCell>
        <mxCell id="j9T_pwgQm9o4kURad69F-26" style="edgeStyle=orthogonalEdgeStyle;rounded=0;orthogonalLoop=1;jettySize=auto;html=1;exitX=1;exitY=1;exitDx=0;exitDy=0;exitPerimeter=0;entryX=0;entryY=0.5;entryDx=0;entryDy=0;" edge="1" parent="1" source="j9T_pwgQm9o4kURad69F-7" target="j9T_pwgQm9o4kURad69F-19">
          <mxGeometry relative="1" as="geometry" />
        </mxCell>
        <mxCell id="j9T_pwgQm9o4kURad69F-7" value="&lt;span style=&quot;white-space: pre-wrap;&quot; class=&quot;selectable-text copyable-text false&quot;&gt;técnico&lt;/span&gt;" style="shape=umlActor;verticalLabelPosition=bottom;verticalAlign=top;html=1;outlineConnect=0;" vertex="1" parent="1">
          <mxGeometry x="80" y="320" width="30" height="60" as="geometry" />
        </mxCell>
        <mxCell id="j9T_pwgQm9o4kURad69F-27" style="edgeStyle=orthogonalEdgeStyle;rounded=0;orthogonalLoop=1;jettySize=auto;html=1;exitX=0.25;exitY=0.1;exitDx=0;exitDy=0;exitPerimeter=0;entryX=1;entryY=0.5;entryDx=0;entryDy=0;" edge="1" parent="1" source="j9T_pwgQm9o4kURad69F-8" target="j9T_pwgQm9o4kURad69F-9">
          <mxGeometry relative="1" as="geometry">
            <Array as="points">
              <mxPoint x="620" y="236" />
              <mxPoint x="620" y="95" />
            </Array>
          </mxGeometry>
        </mxCell>
        <mxCell id="j9T_pwgQm9o4kURad69F-28" style="edgeStyle=orthogonalEdgeStyle;rounded=0;orthogonalLoop=1;jettySize=auto;html=1;exitX=0;exitY=0.3333333333333333;exitDx=0;exitDy=0;exitPerimeter=0;entryX=1;entryY=0.5;entryDx=0;entryDy=0;" edge="1" parent="1" source="j9T_pwgQm9o4kURad69F-8" target="j9T_pwgQm9o4kURad69F-15">
          <mxGeometry relative="1" as="geometry">
            <Array as="points">
              <mxPoint x="610" y="250" />
              <mxPoint x="610" y="155" />
            </Array>
          </mxGeometry>
        </mxCell>
        <mxCell id="j9T_pwgQm9o4kURad69F-29" style="edgeStyle=orthogonalEdgeStyle;rounded=0;orthogonalLoop=1;jettySize=auto;html=1;exitX=0.5;exitY=0.5;exitDx=0;exitDy=0;exitPerimeter=0;entryX=1;entryY=0.5;entryDx=0;entryDy=0;" edge="1" parent="1" source="j9T_pwgQm9o4kURad69F-8" target="j9T_pwgQm9o4kURad69F-16">
          <mxGeometry relative="1" as="geometry" />
        </mxCell>
        <mxCell id="j9T_pwgQm9o4kURad69F-30" style="edgeStyle=orthogonalEdgeStyle;rounded=0;orthogonalLoop=1;jettySize=auto;html=1;exitX=0;exitY=1;exitDx=0;exitDy=0;exitPerimeter=0;entryX=1;entryY=0.5;entryDx=0;entryDy=0;" edge="1" parent="1" source="j9T_pwgQm9o4kURad69F-8" target="j9T_pwgQm9o4kURad69F-17">
          <mxGeometry relative="1" as="geometry">
            <Array as="points">
              <mxPoint x="730" y="280" />
            </Array>
          </mxGeometry>
        </mxCell>
        <mxCell id="j9T_pwgQm9o4kURad69F-33" style="edgeStyle=orthogonalEdgeStyle;rounded=0;orthogonalLoop=1;jettySize=auto;html=1;exitX=1;exitY=0.3333333333333333;exitDx=0;exitDy=0;exitPerimeter=0;entryX=1;entryY=0.5;entryDx=0;entryDy=0;" edge="1" parent="1" source="j9T_pwgQm9o4kURad69F-8" target="j9T_pwgQm9o4kURad69F-19">
          <mxGeometry relative="1" as="geometry" />
        </mxCell>
        <mxCell id="j9T_pwgQm9o4kURad69F-34" style="edgeStyle=orthogonalEdgeStyle;rounded=0;orthogonalLoop=1;jettySize=auto;html=1;exitX=1;exitY=1;exitDx=0;exitDy=0;exitPerimeter=0;entryX=1;entryY=0.5;entryDx=0;entryDy=0;" edge="1" parent="1" source="j9T_pwgQm9o4kURad69F-8" target="j9T_pwgQm9o4kURad69F-18">
          <mxGeometry relative="1" as="geometry" />
        </mxCell>
        <mxCell id="j9T_pwgQm9o4kURad69F-8" value="&lt;span style=&quot;white-space: pre-wrap;&quot; class=&quot;selectable-text copyable-text false&quot;&gt;Banco&lt;/span&gt;" style="shape=umlActor;verticalLabelPosition=bottom;verticalAlign=top;html=1;outlineConnect=0;" vertex="1" parent="1">
          <mxGeometry x="730" y="230" width="30" height="60" as="geometry" />
        </mxCell>
        <mxCell id="j9T_pwgQm9o4kURad69F-9" value="" style="ellipse;whiteSpace=wrap;html=1;fillColor=#dae8fc;strokeColor=#6c8ebf;" vertex="1" parent="1">
          <mxGeometry x="342.5" y="80" width="110" height="50" as="geometry" />
        </mxCell>
        <mxCell id="j9T_pwgQm9o4kURad69F-13" value="&lt;span style=&quot;white-space-collapse: preserve;&quot; class=&quot;selectable-text copyable-text false&quot;&gt;sistema de caixa eletrônico |&lt;/span&gt;" style="text;html=1;align=center;verticalAlign=middle;whiteSpace=wrap;rounded=0;" vertex="1" parent="1">
          <mxGeometry x="319.5" y="50" width="156" height="30" as="geometry" />
        </mxCell>
        <mxCell id="j9T_pwgQm9o4kURad69F-14" style="edgeStyle=orthogonalEdgeStyle;rounded=0;orthogonalLoop=1;jettySize=auto;html=1;exitX=0.5;exitY=1;exitDx=0;exitDy=0;" edge="1" parent="1" source="j9T_pwgQm9o4kURad69F-9" target="j9T_pwgQm9o4kURad69F-9">
          <mxGeometry relative="1" as="geometry" />
        </mxCell>
        <mxCell id="j9T_pwgQm9o4kURad69F-15" value="" style="ellipse;whiteSpace=wrap;html=1;fillColor=#dae8fc;strokeColor=#6c8ebf;" vertex="1" parent="1">
          <mxGeometry x="337.5" y="140" width="120" height="50" as="geometry" />
        </mxCell>
        <mxCell id="j9T_pwgQm9o4kURad69F-16" value="" style="ellipse;whiteSpace=wrap;html=1;fillColor=#dae8fc;strokeColor=#6c8ebf;" vertex="1" parent="1">
          <mxGeometry x="332.5" y="200" width="130" height="50" as="geometry" />
        </mxCell>
        <mxCell id="j9T_pwgQm9o4kURad69F-17" value="" style="ellipse;whiteSpace=wrap;html=1;fillColor=#dae8fc;strokeColor=#6c8ebf;" vertex="1" parent="1">
          <mxGeometry x="337.5" y="255" width="125" height="60" as="geometry" />
        </mxCell>
        <mxCell id="j9T_pwgQm9o4kURad69F-18" value="" style="ellipse;whiteSpace=wrap;html=1;fillColor=#dae8fc;strokeColor=#6c8ebf;" vertex="1" parent="1">
          <mxGeometry x="332.5" y="380" width="130" height="50" as="geometry" />
        </mxCell>
        <mxCell id="j9T_pwgQm9o4kURad69F-19" value="" style="ellipse;whiteSpace=wrap;html=1;fillColor=#dae8fc;strokeColor=#6c8ebf;" vertex="1" parent="1">
          <mxGeometry x="345" y="450" width="115" height="50" as="geometry" />
        </mxCell>
        <mxCell id="j9T_pwgQm9o4kURad69F-35" value="&lt;span style=&quot;white-space-collapse: preserve;&quot; class=&quot;selectable-text copyable-text false&quot;&gt;Checar saldo&lt;/span&gt;" style="text;html=1;align=center;verticalAlign=middle;whiteSpace=wrap;rounded=0;" vertex="1" parent="1">
          <mxGeometry x="370" y="90" width="60" height="30" as="geometry" />
        </mxCell>
        <mxCell id="j9T_pwgQm9o4kURad69F-36" value="&lt;span style=&quot;white-space-collapse: preserve;&quot; class=&quot;selectable-text copyable-text false&quot;&gt;depositar&lt;/span&gt;" style="text;html=1;align=center;verticalAlign=middle;whiteSpace=wrap;rounded=0;" vertex="1" parent="1">
          <mxGeometry x="367.5" y="150" width="60" height="30" as="geometry" />
        </mxCell>
        <mxCell id="j9T_pwgQm9o4kURad69F-37" value="&lt;span style=&quot;white-space-collapse: preserve;&quot; class=&quot;selectable-text copyable-text false&quot;&gt;sacar&lt;/span&gt;" style="text;html=1;align=center;verticalAlign=middle;whiteSpace=wrap;rounded=0;" vertex="1" parent="1">
          <mxGeometry x="367.5" y="210" width="60" height="30" as="geometry" />
        </mxCell>
        <mxCell id="j9T_pwgQm9o4kURad69F-38" value="&lt;span style=&quot;white-space-collapse: preserve;&quot; class=&quot;selectable-text copyable-text false&quot;&gt;transferir&lt;/span&gt;" style="text;html=1;align=center;verticalAlign=middle;whiteSpace=wrap;rounded=0;" vertex="1" parent="1">
          <mxGeometry x="370" y="270" width="60" height="30" as="geometry" />
        </mxCell>
        <mxCell id="j9T_pwgQm9o4kURad69F-39" value="&lt;span style=&quot;white-space-collapse: preserve;&quot; class=&quot;selectable-text copyable-text false&quot;&gt;manutenção &lt;/span&gt;" style="text;html=1;align=center;verticalAlign=middle;whiteSpace=wrap;rounded=0;" vertex="1" parent="1">
          <mxGeometry x="370" y="390" width="60" height="30" as="geometry" />
        </mxCell>
        <mxCell id="j9T_pwgQm9o4kURad69F-40" value="&lt;span style=&quot;white-space-collapse: preserve;&quot; class=&quot;selectable-text copyable-text false&quot;&gt;reparo&lt;/span&gt;" style="text;html=1;align=center;verticalAlign=middle;whiteSpace=wrap;rounded=0;" vertex="1" parent="1">
          <mxGeometry x="372.5" y="460" width="60" height="30" as="geometry" />
        </mxCell>
      </root>
    </mxGraphModel>
  </diagram>
</mxfile>
